<svg width="15"
     height="15"
     viewBox="0 0 172 172"
     x="0px" y="0px"
     style=" fill:#000000;"
     xmlns="http://www.w3.org/2000/svg">
<path fill="#CACEDB" d="M82.07625,6.88c-3.81625,0 -6.39625,3.37281 -6.39625,6.88v13.73313h-27.29156c-7.68625,0 -13.98844,6.30219 -13.98844,13.98844v109.60969c0,7.68625 6.31563,13.98844 13.98844,13.98844h82.06281c7.68625,0 13.98844,-6.30219 13.98844,-13.98844v-109.60969c0.01344,-7.68625 -6.30219,-13.98844 -13.98844,-13.98844h-27.25125v-13.73313c0,-3.50719 -2.58,-6.88 -6.39625,-6.88zM82.56,13.76h13.76v27.52h-13.76zM48.38844,34.37313h27.29156v6.90687c0,3.50719 2.58,6.88 6.39625,6.88h14.7275c3.81625,0 6.39625,-3.37281 6.39625,-6.88v-6.90687h27.25125c3.9775,0 7.12188,3.14437 7.10844,7.10844v109.60969c0,3.96406 -3.13094,7.10844 -7.10844,7.10844h-82.06281c-3.96406,0 -7.10844,-3.13094 -7.10844,-7.10844v-109.60969c0,-3.96406 3.14438,-7.10844 7.10844,-7.10844zM79.12,58.48c-2.24406,0 -4.31344,0.48375 -6.07375,1.3975c-1.76031,0.91375 -3.35937,2.2575 -4.07156,4.4075l-3.61469,10.84406v0.55094h-3.44v6.88h3.44v18.34219c0,1.26313 0.76594,2.29781 1.72,2.29781h6.88c0.95406,0 1.72,-1.03469 1.72,-2.29781v-2.28437h27.52v2.28437c0,1.26313 0.76594,2.29781 1.72,2.29781h6.88c0.95406,0 1.72,-1.03469 1.72,-2.29781v-18.34219h3.44v-6.88h-3.44v-0.55094l-3.61469,-10.84406c-0.71219,-2.15 -2.31125,-3.49375 -4.07156,-4.4075c-1.76031,-0.91375 -3.82969,-1.3975 -6.07375,-1.3975zM79.12,65.36h20.64c1.19594,0 2.2575,0.29563 2.91594,0.63156c0.61813,0.3225 0.76594,0.645 0.69875,0.47031l3.07719,9.21812h-34.02375l3.07719,-9.21812c-0.06719,0.17469 0.08062,-0.14781 0.69875,-0.47031c0.65844,-0.33594 1.72,-0.63156 2.91594,-0.63156zM75.68,82.56c1.89469,0 3.44,1.54531 3.44,3.44c0,1.89469 -1.54531,3.44 -3.44,3.44c-1.89469,0 -3.44,-1.54531 -3.44,-3.44c0,-1.89469 1.54531,-3.44 3.44,-3.44zM103.2,82.56c1.89469,0 3.44,1.54531 3.44,3.44c0,1.89469 -1.54531,3.44 -3.44,3.44c-1.89469,0 -3.44,-1.54531 -3.44,-3.44c0,-1.89469 1.54531,-3.44 3.44,-3.44zM58.48,116.96c-1.23625,-0.01344 -2.39187,0.63156 -3.02344,1.70656c-0.61813,1.075 -0.61813,2.39187 0,3.46687c0.63156,1.075 1.78719,1.72 3.02344,1.70656h61.92c1.23625,0.01344 2.39188,-0.63156 3.02344,-1.70656c0.61813,-1.075 0.61813,-2.39187 0,-3.46687c-0.63156,-1.075 -1.78719,-1.72 -3.02344,-1.70656zM58.48,130.72c-1.23625,-0.01344 -2.39187,0.63156 -3.02344,1.70656c-0.61813,1.075 -0.61813,2.39187 0,3.46687c0.63156,1.075 1.78719,1.72 3.02344,1.70656h61.92c1.23625,0.01344 2.39188,-0.63156 3.02344,-1.70656c0.61813,-1.075 0.61813,-2.39187 0,-3.46687c-0.63156,-1.075 -1.78719,-1.72 -3.02344,-1.70656z" />
</svg>


