<svg width="15"
     height="15"
     viewBox="0 0 172 172"
     x="0px" y="0px"
     style=" fill:#000000;"
     xmlns="http://www.w3.org/2000/svg">
    <path fill="#CACEDB" d="M121.83333,28.66667c0,19.27833 0.00717,53.32717 0.00717,72.283c-20.5755,2.15717 -30.53717,13.36583 -35.8405,25.2625c-5.30333,-11.89667 -15.265,-23.10533 -35.8405,-25.2625c0,-18.94867 0,-53.00467 0.00717,-72.283h71.66667M129,14.33333h-86c-3.956,0 -7.16667,3.18917 -7.16667,7.14517c0,18.56883 -0.00717,68.155 -0.00717,86.35833c0,3.69083 2.82367,7.0735 6.50733,7.0735c0.01433,0 0.0215,0 0.03583,0c0.12183,0 0.25083,0 0.37267,0c43.172,0 28.9605,42.79217 43.258,57.08967c14.29033,-14.29033 0.07167,-57.08967 43.258,-57.08967c0.12183,0 0.25083,0 0.37267,0c0.01433,0 0.0215,0 0.03583,0c3.68367,0 6.50733,-3.38267 6.50733,-7.0735c0.00717,-18.20333 0,-67.7895 -0.00717,-86.35833c0,-3.956 -3.21067,-7.14517 -7.16667,-7.14517z"></path>
</svg>
