<svg width="15"
     height="15"
     viewBox="0 0 172 172"
     x="0px" y="0px"
     style=" fill:#000000;"
     xmlns="http://www.w3.org/2000/svg">
    <path fill="#CACEDB" d="M39.44466,21.5c-0.5284,0.021 -1.19328,0.04199 -1.79167,0.13997c-5.84746,0.97632 -9.82267,6.52979 -8.84635,12.3737l5.09505,30.48633h-8.81836c-13.82943,0 -25.08333,11.2539 -25.08333,25.08333v32.25c0,7.90503 6.4283,14.33333 14.33333,14.33333h2.51953c4.04219,8.44349 12.59591,14.33333 22.5638,14.33333c9.9679,0 18.52162,-5.88984 22.5638,-14.33333h48.03906c4.04219,8.44349 12.59591,14.33333 22.56381,14.33333c9.96746,0 18.52206,-5.89028 22.56381,-14.33333h2.51953c7.90503,0 14.33333,-6.42831 14.33333,-14.33333v-10.75c0,-25.68522 -20.89811,-46.58333 -46.58333,-46.58333h-25.08333v-7.16667h10.75c1.98063,0 3.58333,-1.6062 3.58333,-3.58333c0,-1.98063 -1.6062,-3.58333 -3.58333,-3.58333h-14.31934h-0.014h-0.014l-14.31934,0.014c-1.98063,0 -3.58333,1.6062 -3.58333,3.58333c0,1.98063 1.6062,3.58333 3.58333,3.58333l10.75,-0.014v7.16667h-37.47103l-5.66895,-34.01367c-0.86434,-5.21403 -5.30501,-8.98633 -10.58203,-8.98633zM75.25,78.83333h14.33333c1.98063,0 3.58333,1.6027 3.58333,3.58333c0,1.98063 -1.6027,3.58333 -3.58333,3.58333h-14.33333c-1.98063,0 -3.58333,-1.6027 -3.58333,-3.58333c0,-1.98063 1.6027,-3.58333 3.58333,-3.58333zM132.58333,78.83333h15.42513c7.31495,5.14011 12.79576,12.69258 15.29915,21.5h-16.39095c-0.95182,0 -1.86166,-0.37793 -2.53353,-1.0498l-14.33333,-14.33333c-1.02531,-1.02531 -1.32625,-2.56503 -0.76986,-3.90527c0.5529,-1.34025 1.85466,-2.21159 3.30339,-2.21159zM7.5306,86h10.38607c1.98063,0 3.58333,1.6027 3.58333,3.58333c0,1.98063 -1.6027,3.58333 -3.58333,3.58333h-10.75v-3.58333c0,-1.22696 0.12773,-2.42505 0.36393,-3.58333zM7.16667,100.33333h3.58333c1.98063,0 3.58333,1.6027 3.58333,3.58333c0,1.98063 -1.6027,3.58333 -3.58333,3.58333h-3.58333zM39.41667,107.5c9.87866,0 17.91667,8.038 17.91667,17.91667c0,9.87866 -8.038,17.91667 -17.91667,17.91667c-9.87866,0 -17.91667,-8.038 -17.91667,-17.91667c0,-9.87866 8.038,-17.91667 17.91667,-17.91667zM132.58333,107.5c9.87866,0 17.91667,8.038 17.91667,17.91667c0,9.87866 -8.038,17.91667 -17.91667,17.91667c-9.87866,0 -17.91667,-8.038 -17.91667,-17.91667c0,-9.87866 8.038,-17.91667 17.91667,-17.91667zM39.41667,114.66667c-5.93706,0 -10.75,4.81294 -10.75,10.75c0,5.93706 4.81294,10.75 10.75,10.75c5.93706,0 10.75,-4.81294 10.75,-10.75c0,-5.93706 -4.81294,-10.75 -10.75,-10.75zM132.58333,114.66667c-5.93706,0 -10.75,4.81294 -10.75,10.75c0,5.93706 4.81294,10.75 10.75,10.75c5.93706,0 10.75,-4.81294 10.75,-10.75c0,-5.93706 -4.81294,-10.75 -10.75,-10.75z"></path>
</svg>