<svg xmlns="http://www.w3.org/2000/svg" x="0px" y="0px"
     width="55" height="55"
     viewBox="0 0 172 172"
     style=" fill:#000000;"><g fill="none" fill-rule="nonzero" stroke="none" stroke-width="1" stroke-linecap="butt" stroke-linejoin="miter" stroke-miterlimit="10" stroke-dasharray="" stroke-dashoffset="0" font-family="none" font-weight="none" font-size="none" text-anchor="none" style="mix-blend-mode: normal"><path d="M0,172v-172h172v172z" fill="none"></path><g><path d="M167.7,86c0,45.4854 -37.0574,81.7 -81.7,81.7c-44.6383,0 -81.7,-36.2146 -81.7,-81.7c0,-45.4854 36.2146,-81.7 81.7,-81.7c45.4854,0 81.7,36.2146 81.7,81.7z" fill="#cacedb"></path><path d="M116.6332,115.8893c1.8576,0.9245 3.7152,0.9245 4.6483,2.7821c2.7821,2.7907 2.7821,7.4304 3.7152,10.2168c0.9245,3.7152 1.8576,7.4261 3.7152,11.1413c0.9288,4.6483 2.7864,9.288 3.7152,12.9989c0.6063,-0.473 1.3158,-0.9159 1.9909,-1.3674c20.0681,-14.8264 33.282,-38.5624 33.282,-65.661c0,-24.0671 -10.2039,-45.4725 -26.4923,-60.3591c-1.9737,-0.6493 -3.999,-0.7095 -6.0028,0.1806c-2.7864,0.9331 -4.6397,4.6483 -6.4973,6.5016c-1.8576,2.7864 -3.7152,5.5685 -5.5685,8.3549c-0.9331,0.9288 -1.8576,2.7864 -0.9331,3.7152c0,0.9288 0.9331,0.9288 1.8576,0.9288c1.8576,0.9331 2.7907,0.9331 4.6483,1.8576c0.9288,0 1.8576,0.9331 0.9288,1.8576c0,0 0,0.9331 -0.9288,0.9331c-4.6483,4.644 -9.2837,8.3549 -13.9277,12.9946c-0.9288,0.9288 -1.8576,2.7864 -1.8576,3.7152c0,0.9288 0.9288,0.9288 0.9288,1.8576c0,0.9331 -0.9288,0.9331 -1.8576,1.8576c-1.8576,0.9331 -3.7152,1.8576 -4.644,2.7907c-0.9288,1.8576 0,4.644 -0.9288,6.4973c-0.9288,4.6397 -3.7195,8.3549 -5.5771,12.9989c-1.8576,2.7821 -2.7821,5.5685 -4.6354,8.3549c0,3.7152 -0.9331,6.4973 0.9245,9.2837c4.644,6.493 12.9946,2.7778 19.4962,5.5685zM114.9175,9.503c-8.9741,-3.3454 -18.705,-5.203 -28.9175,-5.203c-1.6813,0 -3.3368,0.0817 -4.9923,0.1763c-1.161,1.8017 -2.0855,3.5776 -2.4338,4.6354c-0.9288,4.6397 2.7864,3.7152 6.4973,4.6397c0,0 0.9288,7.4261 0.9288,8.3549c0.9288,4.6483 -1.8576,7.4261 -1.8576,12.0701c0,2.7864 0,7.4261 1.8576,9.2837h0.9288c0.9288,0 1.8576,-0.9288 3.7152,-1.8576c2.7864,-1.8576 5.5728,-4.6397 8.3549,-6.4973c2.7907,-1.8576 5.5728,-4.6397 7.4304,-6.4973c2.7864,-1.8576 4.6397,-5.5685 5.5685,-8.3592c0.9288,-1.8576 4.1108,-7.3272 3.1777,-10.1093c-0.0688,-0.1505 -0.1677,-0.4085 -0.258,-0.6364zM6.1576,89.8786c2.7864,5.5685 8.3549,11.1456 13.9277,14.8522c3.7152,2.7864 11.1413,2.7864 14.8522,7.4261c2.7864,3.7195 1.8576,8.3549 1.8576,12.9989c0,5.5685 3.7152,10.2125 5.5685,14.8479c0.9288,2.7907 1.8576,6.5016 2.7864,9.288c0,0.9288 0.9288,6.4973 0.9288,7.4261c0.2967,0.1505 0.5418,0.4902 0.7611,0.9116c4.9579,2.7176 10.2254,4.902 15.7251,6.5532c0.0688,0.0043 0.1591,-0.0516 0.2279,-0.0344c0.9288,0 4.644,-5.5728 4.644,-6.5016c2.7864,-2.7864 4.6397,-6.4973 7.4261,-8.3549c1.8576,-0.9288 3.7152,-1.8576 5.5685,-3.7195c1.8576,-1.8576 2.7864,-5.5685 3.7152,-8.3549c0.9288,-1.8533 1.8576,-5.5642 0.9288,-8.3506c-0.5891,-1.763 -0.9288,-2.7864 -2.7864,-3.7152c-5.5685,-1.8576 -11.1413,-1.8576 -15.781,-6.5016c-0.9288,-1.8576 -0.9288,-3.7152 -1.8576,-5.5685c-1.8576,-1.8576 -6.4973,-2.7864 -9.2837,-3.7152h-12.0701h-6.5016c-2.7864,-0.9288 -4.6397,-4.644 -6.4973,-7.4261c0,-0.9288 0,-2.7907 -1.8576,-2.7907c-1.8576,-0.9245 -3.7152,0.9331 -5.5685,0c-0.9288,-0.9245 -0.9288,-1.8576 -0.9288,-2.7821c0,-2.7907 1.8576,-5.5728 3.7152,-7.4304c2.7821,-1.849 5.5685,0.9331 8.3506,0.9331c0.9288,0 0.9288,0 1.8576,0.9288c2.7864,0.9288 3.7152,4.6397 3.7152,7.4304v1.8576c0,0.9288 0.9288,0.9288 1.8576,0.9288c0.9288,-4.6397 0.9288,-9.288 1.8576,-13.9277c0,-5.5685 5.5685,-11.1456 10.2125,-12.9989c1.8576,-0.9245 2.7864,0.9331 4.6397,0c5.5685,-1.8576 19.4962,-7.4261 16.7098,-14.8479c-1.8576,-6.5016 -7.4261,-12.9946 -14.8522,-12.0701c-1.8576,0.9331 -2.7864,1.8576 -4.6397,2.7907c-2.7864,1.8576 -8.3549,7.4261 -11.1413,7.4261c-4.6397,-0.9288 -4.6397,-7.4261 -3.7152,-10.2168c0.9288,-3.7152 9.2837,-15.7767 14.8522,-13.9234c0.9288,0.9288 2.7864,2.7864 3.7152,3.7152c1.8576,0.9288 4.644,0.9288 7.4261,0.9288c0.9288,0 1.8576,0 2.7864,-0.9288c0.9288,-0.9288 0.9288,-0.9288 0.9288,-1.8576c0,-2.7864 -2.7864,-5.5728 -4.6397,-7.4304c-1.8576,-1.8576 -4.644,-3.7152 -7.4261,-4.6354c-5.934,-1.7845 -18.4685,0.3268 -28.6896,3.7754c-15.5316,14.8307 -25.1636,35.7631 -25.1636,59.1852c0,0.3913 0.0387,0.774 0.043,1.1653c0.6622,0.9374 1.2986,1.8533 1.8146,2.7133z" fill="#3d5170"></path><path d="M86,8.6c43.3999,0 77.4,34.0001 77.4,77.4c0,42.6775 -34.7225,77.4 -77.4,77.4c-42.6775,0 -77.4,-34.7225 -77.4,-77.4c0,-43.3999 34.0001,-77.4 77.4,-77.4M86,4.3c-45.4854,0 -81.7,36.2146 -81.7,81.7c0,45.4854 37.0617,81.7 81.7,81.7c44.6426,0 81.7,-36.2146 81.7,-81.7c0,-45.4854 -36.2146,-81.7 -81.7,-81.7z" fill="#7496c4"></path><path d="M133.3043,104.189c-6.7209,-8.0453 -32.2543,-40.2824 -32.2543,-65.489c0,-17.7848 14.4652,-32.25 32.25,-32.25c17.7848,0 32.25,14.4652 32.25,32.25c0,25.4173 -25.5162,57.4781 -32.2457,65.489z" fill="#3498db"></path><path d="M133.3,8.6c16.598,0 30.1,13.502 30.1,30.1c0,22.962 -21.7365,51.858 -30.0914,62.1135c-8.3506,-10.2899 -30.1086,-39.2934 -30.1086,-62.1135c0,-16.598 13.502,-30.1 30.1,-30.1M133.3,4.3c-18.9974,0 -34.4,15.4026 -34.4,34.4c0,30.0527 34.4,68.8 34.4,68.8c0,0 34.4,-38.5108 34.4,-68.8c0,-18.9974 -15.4026,-34.4 -34.4,-34.4z" fill="#007bff"></path><g><path d="M133.3,53.75c-8.299,0 -15.05,-6.751 -15.05,-15.05c0,-8.299 6.751,-15.05 15.05,-15.05c8.299,0 15.05,6.751 15.05,15.05c0,8.299 -6.751,15.05 -15.05,15.05z" fill="#f2faff"></path><path d="M133.3,25.8c7.1251,0 12.9,5.7749 12.9,12.9c0,7.1251 -5.7749,12.9 -12.9,12.9c-7.1251,0 -12.9,-5.7749 -12.9,-12.9c0,-7.1251 5.7749,-12.9 12.9,-12.9M133.3,21.5c-9.4858,0 -17.2,7.7142 -17.2,17.2c0,9.4858 7.7142,17.2 17.2,17.2c9.4858,0 17.2,-7.7142 17.2,-17.2c0,-9.4858 -7.7142,-17.2 -17.2,-17.2z" fill="#007bff"></path></g></g></g></svg>