<svg width="15"
     height="15"
     viewBox="0 0 172 172"
     x="0px" y="0px"
     style=" fill:#000000;"
     xmlns="http://www.w3.org/2000/svg">
    <path fill="#CACEDB" d="M86,11.46667c-25.32987,0 -45.86667,20.5368 -45.86667,45.86667c0,34.4 40.13333,45.86667 40.13333,68.8c0,3.1648 2.56853,5.73333 5.73333,5.73333c3.1648,0 5.73333,-2.56853 5.73333,-5.73333c0,-22.93333 40.13333,-34.4 40.13333,-68.8c0,-25.32987 -20.5368,-45.86667 -45.86667,-45.86667zM86,45.86667c6.33533,0 11.46667,5.13133 11.46667,11.46667c0,6.33533 -5.13133,11.46667 -11.46667,11.46667c-6.33533,0 -11.46667,-5.13133 -11.46667,-11.46667c0,-6.33533 5.13133,-11.46667 11.46667,-11.46667zM53.78359,105.82031c-23.822,4.07067 -42.31693,12.83676 -42.31693,26.04636c0,18.8168 37.496,28.66667 74.53333,28.66667c37.03733,0 74.53333,-9.84987 74.53333,-28.66667c0,-13.2096 -18.49492,-21.97569 -42.31692,-26.04636c-0.4644,0.4644 -0.93534,0.92441 -1.39974,1.37735c-3.13613,3.09027 -6.05351,5.99357 -8.39844,8.74557c26.44213,3.1132 40.64844,11.26797 40.64844,15.92344c0,5.84227 -22.26253,17.2 -63.06667,17.2c-40.80413,0 -63.06667,-11.35773 -63.06667,-17.2c0,-4.65547 14.2063,-12.81024 40.64844,-15.92344c-2.35067,-2.752 -5.26804,-5.6553 -8.39844,-8.74557c-0.45867,-0.45293 -0.92961,-0.91295 -1.39974,-1.37735z"></path>
</svg>