<svg xmlns="http://www.w3.org/2000/svg" x="0px" y="0px"
     width="30" height="30"
     viewBox="0 0 172 172"
     style=" fill:#000000;">
    <g fill="none" fill-rule="nonzero"
       stroke="none"
       stroke-width="1"
       stroke-linecap="butt"
       stroke-linejoin="miter"
       stroke-miterlimit="10"
       stroke-dasharray=""
       stroke-dashoffset="0"
       font-family="none"
       font-weight="none"
       font-size="none"
       text-anchor="none"
       style="mix-blend-mode: normal">
        <path d="M0,172v-172h172v172z"
              fill="none"></path>
        <g fill="#5A6169"><path d="M128.38389,72.369c1.31747,1.30634 3.44449,1.29731 4.75083,-0.02016l19.62312,-19.78974c1.30249,-1.31343 1.29814,-3.43268 -0.00974,-4.74075l-19.62312,-19.62345c-1.3119,-1.312 -3.439,-1.31207 -4.751,-0.00017c-1.312,1.3119 -1.31207,3.439 -0.00017,4.751l13.88833,13.88866h-20.17842c-9.47665,0.02429 -18.39953,4.46796 -24.12905,12.01648l-16.28827,21.57424l-16.28961,-21.57424c-5.72952,-7.54852 -14.6524,-11.9922 -24.12905,-12.01648h-19.62009c-1.85533,0 -3.35937,1.50404 -3.35937,3.35938c0,1.85533 1.50404,3.35938 3.35938,3.35938h19.61875c7.37076,0.01885 14.31082,3.47503 18.76715,9.34612l17.44288,23.10074l-17.44154,23.10108c-4.45639,5.871 -11.39641,9.32716 -18.76715,9.34612h-19.62009c-1.85533,0 -3.35937,1.50404 -3.35937,3.35938c0,1.85533 1.50404,3.35938 3.35938,3.35938h19.61875c9.47665,-0.02429 18.39953,-4.46796 24.12905,-12.01648l16.29095,-21.5729l16.28894,21.57424c5.72952,7.54852 14.6524,11.9922 24.12905,12.01648h20.17842l-13.88934,13.88732c-0.85486,0.8474 -1.191,2.08742 -0.88116,3.25055c0.30984,1.16313 1.21831,2.0716 2.38144,2.38144c1.16313,0.30984 2.40315,-0.0263 3.25055,-0.88116l19.62312,-19.62345c1.30788,-1.30807 1.31224,-3.42732 0.00974,-4.74075l-19.62312,-19.78974c-0.84152,-0.86913 -2.08536,-1.21867 -3.25642,-0.9151c-1.17106,0.30356 -2.08846,1.21334 -2.40179,2.38183c-0.31333,1.16849 0.02582,2.4152 0.8879,3.26394l13.94645,14.06503h-20.22713c-7.37076,-0.01885 -14.31082,-3.47503 -18.76715,-9.34612l-17.4412,-23.10108l17.44154,-23.10108c4.45639,-5.871 11.39641,-9.32716 18.76715,-9.34612h20.22646l-13.94645,14.06503c-0.62738,0.63273 -0.97769,1.48879 -0.97385,2.37983c0.00384,0.89104 0.36152,1.74404 0.99434,2.37134z"></path></g></g></svg>