<svg xmlns="http://www.w3.org/2000/svg" x="0px" y="0px"
     width="120" height="120"
     viewBox="0 0 172 172"
     style=" fill:#000000;"><g fill="none" fill-rule="nonzero" stroke="none" stroke-width="1" stroke-linecap="butt" stroke-linejoin="miter" stroke-miterlimit="10" stroke-dasharray="" stroke-dashoffset="0" font-family="none" font-weight="none" font-size="none" text-anchor="none" style="mix-blend-mode: normal"><path d="M0,172v-172h172v172z" fill="none"></path><g fill="#007bff"><path d="M86,28.66667c31.61217,0 57.33333,25.72117 57.33333,57.33333c0,31.61217 -25.72117,57.33333 -57.33333,57.33333c-31.61217,0 -57.33333,-25.72117 -57.33333,-57.33333c0,-31.61217 25.72117,-57.33333 57.33333,-57.33333M86,14.33333c-39.57433,0 -71.66667,32.08517 -71.66667,71.66667c0,39.5815 32.09233,71.66667 71.66667,71.66667c39.57433,0 71.66667,-32.08517 71.66667,-71.66667c0,-39.5815 -32.09233,-71.66667 -71.66667,-71.66667z"></path><path d="M86,125.41667l-28.66667,-35.83333h57.33333z"></path><path d="M78.83333,46.58333h14.33333v53.75h-14.33333z"></path></g></g></svg>